<svg xmlns="http://www.w3.org/2000/svg" viewBox="0 0 1600 800">
  <defs>
    <linearGradient id="sea" x1="0" x2="1" y1="0" y2="1">
      <stop offset="0%" stop-color="#241f1a" />
      <stop offset="100%" stop-color="#0d1014" />
    </linearGradient>
  </defs>
  <rect width="1600" height="800" fill="url(#sea)" />
  <g fill="#a6764a" opacity="0.92">
    <path d="M143 217c144-87 348-102 553-43 113 32 211 79 300 145 91 68 176 112 274 140 62 17 116 25 210 30v198c-128-13-217-35-312-78-82-38-141-84-222-132-88-53-189-92-307-118-190-41-368-16-519 72V271c5-23 12-40 23-54z" />
    <path d="M505 520c129-8 247 17 342 73 80 48 153 79 238 99 102 24 213 26 357 5v103H120v-93c131-30 245-68 330-111 115-58 197-70 335-76 0 0-188 9 0 0z" />
  </g>
  <g fill="#e5b988" opacity="0.24">
    <ellipse cx="577" cy="286" rx="261" ry="101" />
    <ellipse cx="920" cy="420" rx="251" ry="89" />
  </g>
</svg>