<svg xmlns="http://www.w3.org/2000/svg" viewBox="0 0 1600 800">
  <defs>
    <linearGradient id="sea" x1="0" x2="1" y1="0" y2="1">
      <stop offset="0%" stop-color="#1e3545" />
      <stop offset="100%" stop-color="#0b1721" />
    </linearGradient>
  </defs>
  <rect width="1600" height="800" fill="url(#sea)" />
  <g fill="#c38a4c" opacity="0.92">
    <path d="M134 259c92-44 250-95 385-63 113 28 167 64 265 65 104 2 154-42 256-52 106-10 247 32 372 121v150c-118-35-194-39-285-18-96 23-180 69-300 68-138-2-203-62-332-96C392 401 260 419 120 485V301c7-16 11-28 14-42z" />
    <path d="M1090 523c95-7 182 15 271 74v119c-87-38-164-54-246-38-69 13-128 42-192 56-98 22-175 3-263-58 124-31 204-61 256-88 72-37 108-58 174-65z" />
    <path d="M198 569c111-8 183 14 261 68 70 49 123 71 214 89-102 30-222 40-334 14-79-18-145-55-219-106V579c25-5 51-9 78-10z" />
  </g>
  <g fill="#e4bf7e" opacity="0.35">
    <ellipse cx="421" cy="317" rx="159" ry="61" />
    <ellipse cx="1008" cy="333" rx="186" ry="70" />
    <ellipse cx="1257" cy="588" rx="141" ry="59" />
  </g>
</svg>