<svg xmlns="http://www.w3.org/2000/svg" viewBox="0 0 1600 800">
  <defs>
    <linearGradient id="sea" x1="0" x2="1" y1="0" y2="1">
      <stop offset="0%" stop-color="#15292a" />
      <stop offset="100%" stop-color="#081012" />
    </linearGradient>
  </defs>
  <rect width="1600" height="800" fill="url(#sea)" />
  <g fill="#6a8f4c" opacity="0.9">
    <path d="M117 206c100-56 205-80 317-72 133 9 193 65 312 105 113 39 199 48 317 35 114-12 229-52 368-94v193c-157 44-273 59-392 46-126-14-206-55-329-98-96-34-167-48-260-39-90 9-200 43-330 100V262c1-23 3-39 7-56z" />
    <path d="M335 496c94-10 164 13 244 73 66 50 130 85 231 95 104 10 180-9 271-63 78-46 144-68 226-71 41-2 82 1 123 9v112c-88-11-160-4-235 26-105 42-174 99-307 116-145 18-257-16-365-94-65-47-112-66-173-72-56-5-131 4-230 28V523c74-18 149-25 215-27z" />
  </g>
  <g fill="#b1cf8d" opacity="0.28">
    <ellipse cx="388" cy="283" rx="187" ry="72" />
    <ellipse cx="840" cy="379" rx="218" ry="83" />
    <ellipse cx="1121" cy="577" rx="189" ry="69" />
  </g>
</svg>